<?xml version="1.0" encoding="UTF-8" standalone="no"?>
<!DOCTYPE svg PUBLIC "-//W3C//DTD SVG 1.1//EN" "http://www.w3.org/Graphics/SVG/1.1/DTD/svg11.dtd">
<svg width="100%" height="100%" viewBox="0 0 904 1024" version="1.1" xmlns="http://www.w3.org/2000/svg" xmlns:xlink="http://www.w3.org/1999/xlink" xml:space="preserve" xmlns:serif="http://www.serif.com/" style="fill-rule:evenodd;clip-rule:evenodd;stroke-linejoin:round;stroke-miterlimit:2;">
    <g transform="matrix(1,0,0,1,-60.487236,0)">
        <g transform="matrix(2.883944,0,0,2.883944,-1207.394432,-902.890943)">
            <path d="M713.616,384.089C735.144,384.089 752.756,400.067 752.756,419.596L752.756,632.637C752.756,652.166 735.144,668.144 713.616,668.144L478.775,668.144C457.248,668.144 439.635,652.166 439.635,632.637L439.635,419.596C439.635,400.067 457.248,384.089 478.775,384.089L517.915,384.089C517.915,344.854 552.945,313.075 596.196,313.075C639.446,313.075 674.476,344.854 674.476,384.089L713.616,384.089ZM596.196,348.582C574.668,348.582 557.055,364.56 557.055,384.089L635.336,384.089C635.336,364.56 617.723,348.582 596.196,348.582ZM546.325,538.584L579.924,504.985L506.434,431.615C500.735,425.916 490.881,427.459 487.32,434.82C478.89,452.51 481.977,474.236 496.58,488.958L546.325,538.584ZM626.819,517.095C644.984,525.524 670.509,519.588 689.386,500.711C712.062,478.035 716.455,445.505 699.003,428.053C681.669,410.719 649.139,414.994 626.344,437.67C607.467,456.547 601.531,482.072 609.961,500.236L502.397,607.8C497.767,612.43 497.767,619.909 502.397,624.539C507.028,629.17 514.507,629.17 519.137,624.539L592.627,551.287L665.998,624.658C670.628,629.288 678.108,629.288 682.738,624.658C687.368,620.028 687.368,612.548 682.738,607.918L609.367,534.547L626.819,517.095Z" style="fill:white;"/>
        </g>
    </g>
</svg>
