<svg width="40" height="40" viewBox="0 0 40 40" fill="none" xmlns="http://www.w3.org/2000/svg">
<g clip-path="url(#clip0_8_107)">
<path d="M31.6667 11.6667C31.6667 9.83333 30.1667 8.33333 28.3334 8.33333H23.3334V11.6667H28.3334V16.0833L22.5334 23.3333H16.6667V15H10C6.31671 15 3.33337 17.9833 3.33337 21.6667V26.6667H6.66671C6.66671 29.4333 8.90004 31.6667 11.6667 31.6667C14.4334 31.6667 16.6667 29.4333 16.6667 26.6667H24.1334L31.6667 17.25V11.6667ZM6.66671 23.3333V21.6667C6.66671 19.8333 8.16671 18.3333 10 18.3333H13.3334V23.3333H6.66671ZM11.6667 28.3333C10.75 28.3333 10 27.5833 10 26.6667H13.3334C13.3334 27.5833 12.5834 28.3333 11.6667 28.3333Z" fill="#2D3142"/>
<path d="M16.6667 10H8.33337V13.3333H16.6667V10Z" fill="#2D3142"/>
<path d="M31.6667 21.6667C28.9001 21.6667 26.6667 23.9 26.6667 26.6667C26.6667 29.4333 28.9001 31.6667 31.6667 31.6667C34.4334 31.6667 36.6667 29.4333 36.6667 26.6667C36.6667 23.9 34.4334 21.6667 31.6667 21.6667ZM31.6667 28.3333C30.7501 28.3333 30.0001 27.5833 30.0001 26.6667C30.0001 25.75 30.7501 25 31.6667 25C32.5834 25 33.3334 25.75 33.3334 26.6667C33.3334 27.5833 32.5834 28.3333 31.6667 28.3333Z" fill="#2D3142"/>
</g>
<defs>
<clipPath id="clip0_8_107">
<rect width="40" height="40" fill="white"/>
</clipPath>
</defs>
</svg>
