<svg width="20" height="20" viewBox="0 0 20 20" fill="none" xmlns="http://www.w3.org/2000/svg">
<g clip-path="url(#clip0_76_37)">
<path d="M15.8333 5.83334C15.8333 4.91667 15.0833 4.16667 14.1666 4.16667H11.6666V5.83334H14.1666V8.04167L11.2666 11.6667H8.33329V7.50001H4.99996C3.15829 7.50001 1.66663 8.99167 1.66663 10.8333V13.3333H3.33329C3.33329 14.7167 4.44996 15.8333 5.83329 15.8333C7.21663 15.8333 8.33329 14.7167 8.33329 13.3333H12.0666L15.8333 8.62501V5.83334ZM3.33329 11.6667V10.8333C3.33329 9.91667 4.08329 9.16667 4.99996 9.16667H6.66663V11.6667H3.33329ZM5.83329 14.1667C5.37496 14.1667 4.99996 13.7917 4.99996 13.3333H6.66663C6.66663 13.7917 6.29163 14.1667 5.83329 14.1667Z" fill="#2D3142"/>
<path d="M8.33329 5H4.16663V6.66667H8.33329V5Z" fill="#2D3142"/>
<path d="M15.8333 10.8333C14.4499 10.8333 13.3333 11.95 13.3333 13.3333C13.3333 14.7167 14.4499 15.8333 15.8333 15.8333C17.2166 15.8333 18.3333 14.7167 18.3333 13.3333C18.3333 11.95 17.2166 10.8333 15.8333 10.8333ZM15.8333 14.1667C15.3749 14.1667 14.9999 13.7917 14.9999 13.3333C14.9999 12.875 15.3749 12.5 15.8333 12.5C16.2916 12.5 16.6666 12.875 16.6666 13.3333C16.6666 13.7917 16.2916 14.1667 15.8333 14.1667Z" fill="#2D3142"/>
</g>
<defs>
<clipPath id="clip0_76_37">
<rect width="20" height="20" fill="white"/>
</clipPath>
</defs>
</svg>
